HIERARCHY
ROOT Hips
{
	OFFSET 0.000000 0.000000 0.000000
	CHANNELS 6 Xposition Yposition Zposition Yrotation Xrotation Zrotation
	JOINT Chest
	{
		OFFSET 0.000000 -0.009281 11.569106
		CHANNELS 3 Yrotation Xrotation Zrotation
		JOINT Chest2
		{
			OFFSET -0.000000 0.016865 9.269641
			CHANNELS 3 Yrotation Xrotation Zrotation
			JOINT Chest3
			{
				OFFSET -0.000000 0.000001 8.374491
				CHANNELS 3 Yrotation Xrotation Zrotation
				JOINT Chest4
				{
					OFFSET -0.000000 0.000001 8.374493
					CHANNELS 3 Yrotation Xrotation Zrotation
					JOINT Neck
					{
						OFFSET -0.000000 0.000002 12.152554
						CHANNELS 3 Yrotation Xrotation Zrotation
						JOINT Head
						{
							OFFSET -0.000000 0.040101 7.802319
							CHANNELS 3 Yrotation Xrotation Zrotation
							End Site
							{
								OFFSET -0.000000 0.020947 14.853096
							}
						}
					}
					JOINT RightCollar
					{
						OFFSET 2.894404 0.000001 6.791374
						CHANNELS 3 Yrotation Xrotation Zrotation
						JOINT RightShoulder
						{
							OFFSET 13.574684 0.000001 0.000000
							CHANNELS 3 Yrotation Xrotation Zrotation
							JOINT RightElbow
							{
								OFFSET 23.923903 0.000002 0.000000
								CHANNELS 3 Yrotation Xrotation Zrotation
								JOINT RightWrist
								{
									OFFSET 19.846718 0.012767 0.000000
									CHANNELS 3 Yrotation Xrotation Zrotation
									End Site
									{
										OFFSET 14.973145 0.000001 0.000000
									}
								}
							}
						}
					}
					JOINT LeftCollar
					{
						OFFSET -2.894404 0.000001 6.791374
						CHANNELS 3 Yrotation Xrotation Zrotation
						JOINT LeftShoulder
						{
							OFFSET -13.574684 -0.000001 0.000000
							CHANNELS 3 Yrotation Xrotation Zrotation
							JOINT LeftElbow
							{
								OFFSET -23.923903 -0.000002 0.000000
								CHANNELS 3 Yrotation Xrotation Zrotation
								JOINT LeftWrist
								{
									OFFSET -19.846718 0.012763 0.000000
									CHANNELS 3 Yrotation Xrotation Zrotation
									End Site
									{
										OFFSET -14.973145 -0.000001 0.000000
									}
								}
							}
						}
					}
				}
			}
		}
	}
	JOINT RightHip
	{
		OFFSET 9.469263 0.004643 0.045487
		CHANNELS 3 Yrotation Xrotation Zrotation
		JOINT RightKnee
		{
			OFFSET 0.000000 0.002661 -40.478676
			CHANNELS 3 Yrotation Xrotation Zrotation
			JOINT RightAnkle
			{
				OFFSET 0.000000 0.049106 -35.224068
				CHANNELS 3 Yrotation Xrotation Zrotation
				JOINT RightToe
				{
					OFFSET -0.000001 12.539529 -6.151390
					CHANNELS 3 Yrotation Xrotation Zrotation
					End Site
					{
						OFFSET -0.000001 5.044994 -1.291870
					}
				}
			}
		}
	}
	JOINT LeftHip
	{
		OFFSET -9.469263 0.004641 0.045487
		CHANNELS 3 Yrotation Xrotation Zrotation
		JOINT LeftKnee
		{
			OFFSET 0.000000 0.002661 -40.478676
			CHANNELS 3 Yrotation Xrotation Zrotation
			JOINT LeftAnkle
			{
				OFFSET 0.000000 0.049106 -35.224068
				CHANNELS 3 Yrotation Xrotation Zrotation
				JOINT LeftToe
				{
					OFFSET -0.000001 12.539529 -6.151390
					CHANNELS 3 Yrotation Xrotation Zrotation
					End Site
					{
						OFFSET -0.000001 5.044994 -1.291870
					}
				}
			}
		}
	}
}
MOTION
Frames: 9
Frame Time: 0.016667
66.231392 17.223610 81.562469 4.613068 1.821256 -47.498355 -0.571001 -0.475837 -2.311135 -0.260112 -0.222181 -1.027330 -0.260111 -0.222182 -1.027321 -0.195458 -0.166199 -0.770591 4.966303 -17.739145 -12.149232 5.081968 3.147740 -20.712697 7.357808 6.383800 -1.014096 42.262738 -14.926738 -13.418011 -38.543485 -64.597320 100.553055 -55.377480 35.944635 39.587804 -10.575435 4.160970 -2.271115 -43.072358 -13.482634 27.867028 19.818144 -63.649645 -78.615867 33.909987 23.589431 -69.712633 9.837854 21.574479 11.206799 -0.522644 1.425030 0.423175 13.618380 -7.625199 13.023203 -4.047200 1.235248 0.895800 -13.886884 -5.025442 2.580160 -2.944688 -1.566755 1.158546 7.194644 3.251204 0.749687 0.642523 0.786317 0.027539 
66.387276 17.487679 81.511459 4.787660 1.698117 -47.000427 -0.514345 -0.351339 -2.340919 -0.240293 -0.173043 -1.040284 -0.240293 -0.173043 -1.040280 -0.180516 -0.129374 -0.780278 4.794739 -17.770383 -11.915996 4.847357 3.083876 -20.339736 7.345711 6.287786 -0.987144 42.334773 -14.929643 -13.498027 -38.383471 -64.575436 100.357219 -55.377214 35.996019 39.583395 -10.595974 4.070253 -2.231550 -43.159709 -13.489154 27.949682 19.840957 -63.584150 -78.584284 33.887956 23.568367 -69.706295 9.859263 21.135611 10.869035 -0.573490 1.455467 0.663282 14.091675 -7.719178 13.409370 -3.810843 1.390517 0.865707 -13.904499 -5.130923 2.392835 -3.006886 -1.516033 0.936844 7.276848 3.375270 0.634150 0.521529 0.640357 0.028146 
66.549568 17.764503 81.463432 4.952770 1.566662 -46.514684 -0.458996 -0.232011 -2.374877 -0.216295 -0.121702 -1.055978 -0.216296 -0.121702 -1.055974 -0.162433 -0.090903 -0.792024 4.628806 -17.806658 -11.668076 4.628338 3.012625 -19.937558 7.342009 6.274260 -0.936821 42.318165 -14.873613 -13.610930 -38.334304 -64.639312 100.346858 -55.358287 36.017456 39.592254 -10.629678 4.032242 -2.199901 -43.239821 -13.443452 28.099243 19.849619 -63.559541 -78.543781 33.864696 23.499766 -69.699943 9.838988 20.705910 10.540141 -0.598572 1.530441 0.865811 14.489060 -7.834870 13.735132 -3.556146 1.516326 0.832544 -13.930032 -5.248257 2.257070 -3.035834 -1.464538 0.746161 7.331783 3.507376 0.475713 0.431068 0.534678 0.025641 
66.716850 18.054014 81.416252 5.098771 1.411867 -46.036448 -0.402038 -0.116876 -2.413255 -0.190052 -0.069797 -1.074116 -0.190052 -0.069796 -1.074115 -0.142662 -0.052013 -0.805611 4.475181 -17.841829 -11.410742 4.434647 2.945730 -19.513914 7.353986 6.338451 -0.899795 42.245813 -14.842554 -13.736321 -38.312174 -64.732653 100.418582 -55.338572 36.009246 39.602441 -10.650157 4.017211 -2.173787 -43.299660 -13.331062 28.265596 19.881953 -63.593139 -78.530305 33.845623 23.394185 -69.689451 9.803933 20.292161 10.183664 -0.613722 1.629622 1.100395 14.823809 -7.972420 14.048917 -3.282830 1.625023 0.796848 -13.942065 -5.366148 2.123435 -3.045148 -1.425027 0.523668 7.389837 3.645116 0.366279 1.294236 1.642511 0.041480 
66.893997 18.356934 81.370102 5.221306 1.229932 -45.559763 -0.340293 -0.005582 -2.451455 -0.162327 -0.017845 -1.093075 -0.162327 -0.017845 -1.093073 -0.121778 -0.013093 -0.819812 4.339428 -17.872047 -11.153164 4.273068 2.890291 -19.084035 7.370689 6.411545 -0.880330 42.173000 -14.850525 -13.856150 -38.263263 -64.789931 100.472212 -55.312825 35.990760 39.613304 -10.659186 3.998414 -2.153908 -43.349462 -13.201946 28.409135 19.965087 -63.655662 -78.561601 33.825358 23.299105 -69.658231 9.778235 19.910478 9.853656 -0.622273 1.712221 1.288637 15.070478 -8.142966 14.378356 -2.995811 1.740437 0.763912 -13.916082 -5.497330 1.918419 -3.070774 -1.376793 0.292006 7.482839 3.771446 0.334259 1.967496 2.547310 0.063226 
67.078262 18.680481 81.324715 5.315929 1.049266 -45.085980 -0.281051 0.093563 -2.485418 -0.134622 0.029246 -1.110403 -0.134623 0.029246 -1.110407 -0.100914 0.022179 -0.832799 4.218260 -17.897162 -10.902285 4.135366 2.845618 -18.661798 7.375661 6.447007 -0.876101 42.120113 -14.880795 -13.948302 -38.192550 -64.799972 100.497197 -55.285836 35.976198 39.612553 -10.677023 3.981415 -2.157023 -43.411996 -13.124961 28.537019 19.991800 -63.694034 -78.524848 33.800916 23.238242 -69.637364 9.748393 19.542896 9.585715 -0.615539 1.791122 1.405514 15.234144 -8.326854 14.625846 -2.713172 1.846579 0.733854 -13.876454 -5.661858 1.594719 -3.113373 -1.320231 0.118441 7.636868 3.869903 0.375967 2.466152 3.319418 0.080027 
67.272354 19.024044 81.279488 5.392492 0.870224 -44.612064 -0.224631 0.174575 -2.512219 -0.111030 0.068140 -1.124902 -0.111029 0.068139 -1.124900 -0.083147 0.051309 -0.843663 4.115556 -17.906536 -10.660262 4.026784 2.831619 -18.250368 7.385659 6.496072 -0.873314 42.076038 -14.924815 -14.044687 -38.112804 -64.795826 100.495729 -55.247013 35.975819 39.620377 -10.702586 3.965149 -2.171990 -43.482518 -13.116891 28.619620 19.942049 -63.697805 -78.401488 33.785739 23.210016 -69.633628 9.713522 19.184116 9.380232 -0.626778 1.874273 1.489644 15.284399 -8.369958 14.649786 -2.375921 1.873630 0.682765 -13.821766 -5.862126 1.235394 -3.170514 -1.242128 -0.021565 7.816083 3.946047 0.416928 2.842349 3.989237 0.100294 
67.470604 19.377337 81.236206 5.460135 0.690025 -44.123077 -0.175683 0.245920 -2.538115 -0.091430 0.099571 -1.135951 -0.091430 0.099569 -1.135948 -0.068388 0.074848 -0.851949 4.031186 -17.896072 -10.433579 3.944666 2.855325 -17.861860 7.395170 6.486879 -0.867199 42.031007 -14.903654 -14.112254 -38.065136 -64.793538 100.518801 -55.217493 35.977222 39.626227 -10.716529 3.890081 -2.184852 -43.555720 -13.137586 28.610626 19.869736 -63.659562 -78.260574 33.764186 23.184589 -69.638580 9.656873 18.823778 9.197758 -0.665112 1.983500 1.739339 15.326905 -8.389339 14.692355 -2.028061 1.878247 0.625747 -13.762270 -6.072571 0.953537 -3.210735 -1.164903 -0.142854 7.973232 4.005176 0.345601 3.136878 4.592045 0.126890 
67.665497 19.732470 81.196884 5.519536 0.510133 -43.624872 -0.137120 0.303233 -2.564294 -0.073822 0.122073 -1.143588 -0.073821 0.122073 -1.143588 -0.055138 0.091693 -0.857674 3.964570 -17.864572 -10.219048 3.888988 2.919068 -17.490595 7.377995 6.369937 -0.882238 41.997525 -14.814072 -14.082305 -38.045059 -64.795423 100.552713 -55.205844 35.987795 39.629683 -10.729809 3.814400 -2.214242 -43.618906 -13.174158 28.569759 19.857641 -63.605358 -78.182764 33.740595 23.157341 -69.644208 9.569987 18.464885 9.039505 -0.694075 2.114286 2.156534 15.292001 -8.316939 14.470746 -1.659664 1.870203 0.565933 -13.706955 -6.281018 0.748644 -3.221731 -1.097764 -0.263318 8.105870 4.042556 0.195113 3.365056 5.148548 0.155104 
